<?xml version="1.0" encoding="utf-8"?>
<!-- Generator: Adobe Illustrator 21.0.2, SVG Export Plug-In . SVG Version: 6.00 Build 0)  -->
<svg version="1.1" xmlns="http://www.w3.org/2000/svg" xmlns:xlink="http://www.w3.org/1999/xlink" x="0px" y="0px"
	 viewBox="0 0 620 622" style="enable-background:new 0 0 620 622;" xml:space="preserve">
<style type="text/css">
	.st0{fill:#FFFF00;}
	.st1{fill:#F9CC3D;}
	.st2{fill:#F7931E;}
	.st3{fill:#F15A24;}
	.st4{fill:#FF0000;}
	.st5{fill:#9B0461;}
	.st6{fill:#662D91;}
	.st7{fill:#4E00E5;}
	.st8{fill:#0000FF;}
	.st9{fill:#00CEBF;}
	.st10{fill:#02D325;}
	.st11{fill:#A3F700;}
</style>
<g id="Layer_1">
</g>
<g id="Layer_2">
	<polygon class="st0" points="228.5,8.5 308.5,311.5 391.5,8.5 	"/>
</g>
<g id="Layer_3">
	<polygon class="st1" points="308.5,311.5 391.5,8.5 533.5,90.5 	"/>
</g>
<g id="Layer_4">
	<polygon class="st2" points="308.5,311.5 533.5,90.5 615.5,231.5 	"/>
</g>
<g id="Layer_5">
	<polygon class="st3" points="308.5,311.5 615.5,231.5 615.5,395.5 	"/>
</g>
<g id="Layer_6">
	<polygon class="st4" points="308.5,311.5 533.5,536.5 615.5,395.5 	"/>
</g>
<g id="Layer_7">
	<polygon class="st5" points="533.5,536.5 391.5,618.5 308.5,311.5 	"/>
</g>
<g id="Layer_8">
	<polygon class="st6" points="391.5,618.5 308.5,311.5 228.5,618.5 	"/>
</g>
<g id="Layer_9">
	<polygon class="st7" points="228.5,618.5 309.5,313.5 86.5,536.5 	"/>
</g>
<g id="Layer_10">
	<polygon class="st8" points="86.5,536.5 309.5,313.5 4.5,395.5 	"/>
</g>
<g id="Layer_11">
	<polygon class="st9" points="4.5,395.5 309.5,313.5 4.5,231.5 	"/>
</g>
<g id="Layer_12">
	<polygon class="st10" points="4.5,231.5 308.5,313.5 86.5,90.5 	"/>
</g>
<g id="Layer_13">
	<polygon class="st11" points="86.5,90.5 228.5,8.5 308.5,311.5 	"/>
</g>
</svg>
